<?xml version="1.0" encoding="utf-8"?>
<!-- Generator: Adobe Illustrator 24.1.2, SVG Export Plug-In . SVG Version: 6.00 Build 0)  -->
<svg version="1.1" id="Layer_1" xmlns="http://www.w3.org/2000/svg" xmlns:xlink="http://www.w3.org/1999/xlink" x="0px" y="0px"
	 viewBox="0 0 300 81.52" style="enable-background:new 0 0 300 81.52;" xml:space="preserve">
<style type="text/css">
	.st0{fill:#FFFFFF;}
	.st1{fill:#00C4BF;}
	.st2{fill:#FF0000;}
	.st3{fill:none;stroke:#FFFFFF;stroke-width:2.0972;}
</style>
<g>
	<g id="XMLID_1_">
		<g>
			<path class="st0" d="M288.78,54.99h3.42c-2.91,10.44-9.78,15.67-20.62,15.67c-3.89,0-7.47-0.96-10.75-2.87
				c-3.28-1.91-5.87-4.51-7.78-7.79c-1.92-3.28-2.87-6.86-2.87-10.74s0.95-7.46,2.87-10.74c1.91-3.28,4.5-5.88,7.78-7.79
				s6.86-2.87,10.75-2.87c9.64,0,16.48,5.02,20.54,15.07h-37.49c-0.86,1.71-1.28,3.82-1.28,6.33c0.05,3.25,0.89,6.29,2.52,9.11
				c1.63,2.83,3.81,5.07,6.55,6.72c2.74,1.66,5.73,2.48,8.98,2.48C280.25,67.57,286.04,63.38,288.78,54.99z M255.91,40.02h31.33
				c-3.31-6.05-8.53-9.08-15.66-9.08C264.44,30.94,259.22,33.97,255.91,40.02z"/>
			<path class="st0" d="M244.23,48.87c1.11,2.14,1.67,4.38,1.67,6.72c0,2.74-0.66,5.27-1.97,7.58c-1.31,2.31-3.11,4.13-5.39,5.47
				c-2.28,1.35-4.79,2.02-7.53,2.02c-2.68,0-5.15-0.66-7.4-1.97c-2.26-1.31-4.06-3.07-5.4-5.27c-1.34-2.19-2.04-4.6-2.09-7.23h2.99
				c0.06,2.06,0.63,3.97,1.71,5.74c1.09,1.76,2.53,3.16,4.33,4.19c1.79,1.03,3.75,1.54,5.86,1.54c2.17,0,4.16-0.53,5.99-1.58
				c1.82-1.06,3.26-2.49,4.32-4.28c1.06-1.8,1.58-3.75,1.58-5.87c0-2.11-0.52-4.06-1.58-5.86c-1.06-1.8-2.5-3.22-4.32-4.28
				c-1.83-1.05-3.82-1.58-5.99-1.58c-1.31,0-2.61-0.37-3.9-1.11c-1.28-0.74-2.32-1.74-3.12-3c-0.8-1.25-1.2-2.59-1.2-4.02
				c0-2.28,0.8-4.22,2.4-5.82c1.6-1.6,3.54-2.4,5.82-2.4s4.22,0.8,5.82,2.4c1.59,1.6,2.39,3.54,2.39,5.82h-2.99
				c0-1.48-0.5-2.73-1.5-3.72c-1-1-2.24-1.5-3.72-1.5c-1.43,0-2.65,0.5-3.68,1.5c-1.03,0.99-1.54,2.24-1.54,3.72
				c0,1.37,0.5,2.54,1.5,3.51c0.99,0.97,2.23,1.51,3.72,1.62c3.25,0.17,5.99,0.96,8.21,2.36C241.45,44.97,243.12,46.73,244.23,48.87
				z"/>
			<path class="st0" d="M211.84,49.09v21.57h-2.91v-10.7c-4.23,7.13-10.44,10.7-18.66,10.7c-3.88,0-7.46-0.97-10.74-2.91
				s-5.89-4.57-7.83-7.88c-1.94-3.31-2.91-6.9-2.91-10.78s0.97-7.45,2.91-10.7s4.55-5.82,7.83-7.7c3.28-1.89,6.86-2.83,10.74-2.83
				c3.88,0,7.47,0.94,10.78,2.83c3.31,1.88,5.94,4.45,7.88,7.7C210.87,41.64,211.84,45.21,211.84,49.09z M208.76,49.09
				c0-3.31-0.82-6.36-2.44-9.16c-1.63-2.8-3.87-5.01-6.72-6.63c-2.86-1.63-5.97-2.44-9.33-2.44c-3.37,0-6.46,0.81-9.29,2.44
				c-2.82,1.62-5.06,3.83-6.72,6.63c-1.65,2.8-2.48,5.85-2.48,9.16c0,3.36,0.83,6.47,2.48,9.33c1.66,2.85,3.9,5.09,6.72,6.71
				c2.83,1.63,5.92,2.44,9.29,2.44c3.36,0,6.47-0.81,9.33-2.44c2.85-1.62,5.09-3.86,6.72-6.71
				C207.94,55.56,208.76,52.45,208.76,49.09z"/>
			<path class="st1" d="M206.32,39.93c1.62,2.8,2.44,5.85,2.44,9.16c0,3.36-0.82,6.47-2.44,9.33c-1.63,2.85-3.87,5.09-6.72,6.71
				c-2.86,1.63-5.97,2.44-9.33,2.44c-3.37,0-6.46-0.81-9.29-2.44c-2.82-1.62-5.06-3.86-6.72-6.71c-1.65-2.86-2.48-5.97-2.48-9.33
				c0-3.31,0.83-6.36,2.48-9.16c1.66-2.8,3.9-5.01,6.72-6.63c2.83-1.63,5.92-2.44,9.29-2.44c3.36,0,6.47,0.81,9.33,2.44
				C202.45,34.92,204.69,37.13,206.32,39.93z"/>
			<path class="st0" d="M161.6,38.35c1.94,3.28,2.91,6.86,2.91,10.74s-0.97,7.47-2.91,10.78c-1.94,3.31-4.57,5.94-7.88,7.88
				s-6.9,2.91-10.78,2.91s-7.46-0.97-10.74-2.91s-5.89-4.57-7.83-7.88c-1.94-3.31-2.91-6.9-2.91-10.78V10.74h2.91v27.48
				c4.16-7.08,10.35-10.61,18.57-10.61c3.88,0,7.47,0.97,10.78,2.91S159.66,35.07,161.6,38.35z M161.43,49.09
				c0-3.37-0.83-6.46-2.48-9.29c-1.66-2.82-3.9-5.06-6.72-6.72c-2.83-1.65-5.92-2.48-9.29-2.48s-6.46,0.83-9.29,2.48
				c-2.82,1.66-5.06,3.9-6.71,6.72c-1.66,2.83-2.49,5.92-2.49,9.29c0,3.36,0.83,6.46,2.49,9.28c1.65,2.83,3.89,5.07,6.71,6.72
				c2.83,1.66,5.92,2.48,9.29,2.48s6.46-0.82,9.29-2.48c2.82-1.65,5.06-3.89,6.72-6.72C160.6,55.55,161.43,52.45,161.43,49.09z"/>
			<path class="st2" d="M158.95,39.8c1.65,2.83,2.48,5.92,2.48,9.29c0,3.36-0.83,6.46-2.48,9.28c-1.66,2.83-3.9,5.07-6.72,6.72
				c-2.83,1.66-5.92,2.48-9.29,2.48s-6.46-0.82-9.29-2.48c-2.82-1.65-5.06-3.89-6.71-6.72c-1.66-2.82-2.49-5.92-2.49-9.28
				c0-3.37,0.83-6.46,2.49-9.29c1.65-2.82,3.89-5.06,6.71-6.72c2.83-1.65,5.92-2.48,9.29-2.48s6.46,0.83,9.29,2.48
				C155.05,34.74,157.29,36.98,158.95,39.8z"/>
			<polygon class="st0" points="117.18,10.74 88.68,70.57 83.72,60.9 78.75,70.57 52.9,10.74 55.99,10.74 78.75,63.72 81.92,57.48 
				62.83,10.74 66,10.74 83.72,54.05 104,10.74 107.25,10.74 85.51,57.48 88.68,63.72 114.01,10.74 			"/>
			<polygon class="st0" points="48.63,10.74 48.63,13.23 28.34,13.23 28.34,70.66 25.43,70.66 25.43,13.23 3.52,13.23 3.52,10.74 
							"/>
		</g>
		<g>
			<polygon class="st3" points="48.63,13.23 28.34,13.23 28.34,70.66 25.43,70.66 25.43,13.23 3.52,13.23 3.52,10.74 48.63,10.74 
							"/>
			<polygon class="st3" points="78.75,63.72 81.92,57.48 62.83,10.74 66,10.74 83.72,54.05 104,10.74 107.25,10.74 85.51,57.48 
				88.68,63.72 114.01,10.74 117.18,10.74 88.68,70.57 83.72,60.9 78.75,70.57 52.9,10.74 55.99,10.74 			"/>
			<path class="st3" d="M124.37,38.22c4.16-7.08,10.35-10.61,18.57-10.61c3.88,0,7.47,0.97,10.78,2.91s5.94,4.55,7.88,7.83
				c1.94,3.28,2.91,6.86,2.91,10.74s-0.97,7.47-2.91,10.78c-1.94,3.31-4.57,5.94-7.88,7.88s-6.9,2.91-10.78,2.91
				s-7.46-0.97-10.74-2.91s-5.89-4.57-7.83-7.88c-1.94-3.31-2.91-6.9-2.91-10.78V10.74h2.91V38.22z"/>
			<path class="st3" d="M142.94,30.6c-3.37,0-6.46,0.83-9.29,2.48c-2.82,1.66-5.06,3.9-6.71,6.72c-1.66,2.83-2.49,5.92-2.49,9.29
				c0,3.36,0.83,6.46,2.49,9.28c1.65,2.83,3.89,5.07,6.71,6.72c2.83,1.66,5.92,2.48,9.29,2.48s6.46-0.82,9.29-2.48
				c2.82-1.65,5.06-3.89,6.72-6.72c1.65-2.82,2.48-5.92,2.48-9.28c0-3.37-0.83-6.46-2.48-9.29c-1.66-2.82-3.9-5.06-6.72-6.72
				C149.4,31.43,146.31,30.6,142.94,30.6z"/>
			<path class="st3" d="M168.79,49.09c0-3.88,0.97-7.45,2.91-10.7s4.55-5.82,7.83-7.7c3.28-1.89,6.86-2.83,10.74-2.83
				c3.88,0,7.47,0.94,10.78,2.83c3.31,1.88,5.94,4.45,7.88,7.7c1.94,3.25,2.91,6.82,2.91,10.7v21.57h-2.91v-10.7
				c-4.23,7.13-10.44,10.7-18.66,10.7c-3.88,0-7.46-0.97-10.74-2.91s-5.89-4.57-7.83-7.88C169.76,56.56,168.79,52.97,168.79,49.09z"
				/>
			<path class="st3" d="M190.27,67.57c3.36,0,6.47-0.81,9.33-2.44c2.85-1.62,5.09-3.86,6.72-6.71c1.62-2.86,2.44-5.97,2.44-9.33
				c0-3.31-0.82-6.36-2.44-9.16c-1.63-2.8-3.87-5.01-6.72-6.63c-2.86-1.63-5.97-2.44-9.33-2.44c-3.37,0-6.46,0.81-9.29,2.44
				c-2.82,1.62-5.06,3.83-6.72,6.63c-1.65,2.8-2.48,5.85-2.48,9.16c0,3.36,0.83,6.47,2.48,9.33c1.66,2.85,3.9,5.09,6.72,6.71
				C183.81,66.76,186.9,67.57,190.27,67.57z"/>
			<path class="st3" d="M231.01,41.21c3.25,0.17,5.99,0.96,8.21,2.36c2.23,1.4,3.9,3.16,5.01,5.3s1.67,4.38,1.67,6.72
				c0,2.74-0.66,5.27-1.97,7.58c-1.31,2.31-3.11,4.13-5.39,5.47c-2.28,1.35-4.79,2.02-7.53,2.02c-2.68,0-5.15-0.66-7.4-1.97
				c-2.26-1.31-4.06-3.07-5.4-5.27c-1.34-2.19-2.04-4.6-2.09-7.23h2.99c0.06,2.06,0.63,3.97,1.71,5.74
				c1.09,1.76,2.53,3.16,4.33,4.19c1.79,1.03,3.75,1.54,5.86,1.54c2.17,0,4.16-0.53,5.99-1.58c1.82-1.06,3.26-2.49,4.32-4.28
				c1.06-1.8,1.58-3.75,1.58-5.87c0-2.11-0.52-4.06-1.58-5.86c-1.06-1.8-2.5-3.22-4.32-4.28c-1.83-1.05-3.82-1.58-5.99-1.58
				c-1.31,0-2.61-0.37-3.9-1.11c-1.28-0.74-2.32-1.74-3.12-3c-0.8-1.25-1.2-2.59-1.2-4.02c0-2.28,0.8-4.22,2.4-5.82
				c1.6-1.6,3.54-2.4,5.82-2.4s4.22,0.8,5.82,2.4c1.59,1.6,2.39,3.54,2.39,5.82h-2.99c0-1.48-0.5-2.73-1.5-3.72
				c-1-1-2.24-1.5-3.72-1.5c-1.43,0-2.65,0.5-3.68,1.5c-1.03,0.99-1.54,2.24-1.54,3.72c0,1.37,0.5,2.54,1.5,3.51
				C228.28,40.56,229.52,41.1,231.01,41.21z"/>
			<path class="st3" d="M254.63,42.93c-0.86,1.71-1.28,3.82-1.28,6.33c0.05,3.25,0.89,6.29,2.52,9.11c1.63,2.83,3.81,5.07,6.55,6.72
				c2.74,1.66,5.73,2.48,8.98,2.48c8.85,0,14.64-4.19,17.38-12.58h3.42c-2.91,10.44-9.78,15.67-20.62,15.67
				c-3.89,0-7.47-0.96-10.75-2.87c-3.28-1.91-5.87-4.51-7.78-7.79c-1.92-3.28-2.87-6.86-2.87-10.74s0.95-7.46,2.87-10.74
				c1.91-3.28,4.5-5.88,7.78-7.79s6.86-2.87,10.75-2.87c9.64,0,16.48,5.02,20.54,15.07H254.63z"/>
			<path class="st3" d="M287.24,40.02c-3.31-6.05-8.53-9.08-15.66-9.08c-7.14,0-12.36,3.03-15.67,9.08H287.24z"/>
		</g>
	</g>
</g>
</svg>
